HIERARCHY
ROOT Hips
{
	OFFSET 0.000000 0.000000 0.000000 
	CHANNELS 6 Xposition Yposition Zposition Zrotation Yrotation Xrotation
	JOINT LeftUpLeg
	{
		OFFSET 1.363060 -1.794630 0.839290 
		CHANNELS 3 Zrotation Yrotation Xrotation
		JOINT LeftLeg
		{
			OFFSET 2.448110 -6.726130 0.000000 
			CHANNELS 3 Zrotation Yrotation Xrotation
			JOINT LeftFoot
			{
				OFFSET 2.562200 -7.039590 0.000000 
				CHANNELS 3 Zrotation Yrotation Xrotation
				JOINT LeftToeBase
				{
					OFFSET 0.157640 -0.433110 2.322550 
					CHANNELS 3 Zrotation Yrotation Xrotation
					End Site
					{
						OFFSET 0.000000 0.000000 0.000000 
					}
				}
			}
		}
	}
	JOINT RightUpLeg
	{
		OFFSET -1.305520 -1.794630 0.839290 
		CHANNELS 3 Zrotation Yrotation Xrotation
		JOINT RightLeg
		{
			OFFSET -2.542530 -6.985550 0.000000 
			CHANNELS 3 Zrotation Yrotation Xrotation
			JOINT RightFoot
			{
				OFFSET -2.568260 -7.056230 0.000000 
				CHANNELS 3 Zrotation Yrotation Xrotation
				JOINT RightToeBase
				{
					OFFSET -0.164730 -0.452590 2.363150 
					CHANNELS 3 Zrotation Yrotation Xrotation
					End Site
					{
						OFFSET 0.000000 0.000000 0.000000 
					}
				}
			}
		}
	}
	JOINT Spine
	{
		OFFSET 0.028270 2.035590 -0.193380 
		CHANNELS 3 Zrotation Yrotation Xrotation
		JOINT Spine1
		{
			OFFSET 0.056720 2.048850 -0.042750 
			CHANNELS 3 Zrotation Yrotation Xrotation
			JOINT Neck1
			{
				OFFSET -0.054170 1.746240 0.172020 
				CHANNELS 3 Zrotation Yrotation Xrotation
				JOINT Head
				{
					OFFSET 0.104070 1.761360 -0.123970 
					CHANNELS 3 Zrotation Yrotation Xrotation
					End Site
					{
						OFFSET 0.000000 0.000000 0.000000 
					}
				}
			}
			JOINT LeftArm
			{
				OFFSET 3.362410 1.200890 -0.311210 
				CHANNELS 3 Zrotation Yrotation Xrotation
				JOINT LeftForeArm
				{
					OFFSET 4.983000 -0.000000 -0.000000 
					CHANNELS 3 Zrotation Yrotation Xrotation
					JOINT LeftHand
					{
						OFFSET 3.483560 -0.000000 -0.000000 
						CHANNELS 3 Zrotation Yrotation Xrotation
						JOINT LeftHandIndex1
						{
							OFFSET 0.715260 -0.000000 -0.000000 
							CHANNELS 3 Zrotation Yrotation Xrotation
							End Site
							{
								OFFSET 0.000000 0.000000 0.000000 
							}
						}
					}
				}
			}
			JOINT RightArm
			{
				OFFSET -3.136600 1.374050 -0.404650 
				CHANNELS 3 Zrotation Yrotation Xrotation
				JOINT RightForeArm
				{
					OFFSET -5.241900 -0.000000 -0.000000 
					CHANNELS 3 Zrotation Yrotation Xrotation
					JOINT RightHand
					{
						OFFSET -3.444170 -0.000000 -0.000000 
						CHANNELS 3 Zrotation Yrotation Xrotation
						JOINT RightHandIndex1
						{
							OFFSET -0.622530 -0.000000 -0.000000 
							CHANNELS 3 Zrotation Yrotation Xrotation
							End Site
							{
								OFFSET 0.000000 0.000000 0.000000 
							}
						}
					}
				}
			}
		}
	}
}
MOTION
Frames: 12
Frame Time: 0.041667
11.398745 18.335501 15.222004 -20.903424 80.790964 -4.917552 -1.154860 -9.401227 -40.200693 2.391786 11.089374 30.885808 -0.676419 8.414633 7.759703 0.101700 2.056800 5.662600 15.431557 22.561237 -19.521621 -4.811499 -12.182647 38.528426 0.455154 19.339308 -1.952379 -0.231400 -3.095800 8.545600 2.225311 -4.326545 -1.984348 5.587332 -2.137813 0.295710 16.149909 -24.564208 15.518462 3.573500 -11.440000 6.942000 -92.044772 -6.719966 41.184022 46.720116 -52.721938 -19.776825 -0.724469 2.134361 -22.789630 -7.125000 0.000000 0.000000 47.508239 5.054578 83.292218 -64.362994 56.946694 -36.474479 1.223236 -1.136978 24.334624 7.125000 0.000000 0.000000 
11.227914 18.332316 15.284327 -21.025149 81.180523 -4.964351 -1.689783 -9.070502 -40.943049 2.633069 11.440485 32.068610 -0.630029 8.003440 7.716035 0.105600 2.095600 5.770000 15.503473 22.351622 -20.098989 -4.794905 -12.168897 38.467588 0.354708 18.816825 -2.779257 -0.190400 -2.810400 7.751400 2.103425 -4.274720 -1.901270 5.378710 -2.121263 0.303479 16.441689 -24.622198 15.164702 3.664900 -11.476000 6.859100 -91.969351 -6.737614 41.187181 46.917789 -52.796110 -19.895929 -0.737549 2.124654 -23.072400 -7.125000 0.000000 0.000000 46.286427 6.646703 84.163022 -65.951555 57.324367 -37.853633 1.244159 -1.145725 24.415467 7.125000 0.000000 0.000000 
11.059632 18.327326 15.347287 -21.471598 81.592196 -5.353997 -2.237455 -8.691156 -41.731447 2.902767 11.810497 33.342697 -0.579760 7.553013 7.713655 0.111000 2.147700 5.914100 15.596325 22.071256 -20.732766 -4.787763 -12.167050 38.447702 0.278796 18.422941 -3.416392 -0.161800 -2.591500 7.143400 1.984630 -4.217381 -1.821588 5.159510 -2.101498 0.313002 16.718575 -24.687547 14.847650 3.754300 -11.516200 6.788500 -91.939192 -6.815837 41.201642 46.940124 -52.788393 -19.894330 -0.747657 2.116411 -23.257990 -7.125000 0.000000 0.000000 45.052791 8.195574 84.923244 -67.507892 57.665214 -39.205889 1.264575 -1.160326 24.579931 7.125000 0.000000 0.000000 
10.893472 18.320637 15.410565 -22.289211 82.001640 -6.139781 -2.765412 -8.287675 -42.526795 3.200101 12.194756 34.697311 -0.526482 7.059230 7.740018 0.116800 2.203800 6.069300 15.720869 21.734463 -21.416289 -4.791950 -12.179499 38.477250 0.228679 18.171840 -3.853739 -0.144500 -2.449800 6.750600 1.872014 -4.155976 -1.744308 4.942419 -2.079850 0.320999 16.960328 -24.749406 14.573981 3.836200 -11.555500 6.729200 -91.986981 -6.943757 41.177942 46.801556 -52.707191 -19.782355 -0.755238 2.110115 -23.299814 -7.125000 0.000000 0.000000 43.788667 9.736828 85.599778 -69.029949 57.972451 -40.529592 1.283730 -1.180087 24.774761 7.125000 0.000000 0.000000 
10.729224 18.312674 15.474587 -23.466552 82.372077 -7.317150 -3.235737 -7.883137 -43.289530 3.524869 12.589988 36.126211 -0.470980 6.514279 7.779185 0.120800 2.241000 6.172100 15.886946 21.372923 -22.131364 -4.807259 -12.205488 38.554561 0.205707 18.064189 -4.069657 -0.142000 -2.428900 6.692700 1.768220 -4.087626 -1.669272 4.744955 -2.055956 0.322555 17.167878 -24.795796 14.347291 3.914800 -11.588200 6.683100 -92.122841 -7.084372 41.067728 46.553341 -52.575935 -19.595496 -0.760758 2.105370 -23.171053 -7.125000 0.000000 0.000000 42.485662 11.317193 86.214800 -70.486601 58.245800 -41.799293 1.300814 -1.203283 24.936892 7.125000 0.000000 0.000000 
10.566781 18.303862 15.539246 -25.021966 82.671609 -8.915219 -3.608681 -7.494641 -43.980317 3.877721 12.993922 37.625917 -0.414561 5.920403 7.823027 0.121200 2.244400 6.181600 16.115834 21.010230 -22.849835 -4.831849 -12.242618 38.670526 0.208307 18.086571 -4.073207 -0.154800 -2.535600 6.988300 1.671909 -4.006143 -1.593635 4.565464 -2.027275 0.316409 17.328461 -24.820910 14.159918 3.984300 -11.611700 6.642600 -92.345901 -7.209942 40.847906 46.240820 -52.415098 -19.365476 -0.763624 2.101767 -22.866617 -7.125000 0.000000 0.000000 41.147701 12.970909 86.770034 -71.851179 58.486270 -42.991026 1.313546 -1.228602 25.057974 7.125000 0.000000 0.000000 
10.406355 18.294731 15.604966 -26.801016 82.869789 -10.781746 -3.862390 -7.131186 -44.572593 4.259738 13.406000 39.197370 -0.358422 5.279739 7.859072 0.114400 2.180400 6.004500 16.412117 20.678085 -23.536146 -4.862248 -12.285820 38.808847 0.232084 18.207350 -3.892604 -0.185000 -2.770100 7.639300 1.584187 -3.908025 -1.516319 4.419959 -1.993090 0.307454 17.436937 -24.816486 14.010218 4.044700 -11.622200 6.605300 -92.652952 -7.289079 40.504212 45.912494 -52.249273 -19.129706 -0.762553 2.100224 -22.434291 -7.125000 0.000000 0.000000 39.770176 14.721262 87.264949 -73.111230 58.697003 -44.093398 1.321556 -1.255208 25.151095 7.125000 0.000000 0.000000 
10.247946 18.285388 15.671961 -28.597951 82.971012 -12.709329 -3.995578 -6.814150 -45.056676 4.672049 13.825687 40.840732 -0.305440 4.621684 7.883134 0.102500 2.064900 5.685000 16.764664 20.387474 -24.166255 -4.894384 -12.329754 38.951735 0.270807 18.385309 -3.570731 -0.236200 -3.127600 8.634100 1.497319 -3.786701 -1.437022 4.295542 -1.949828 0.298624 17.495164 -24.798945 13.897297 4.090200 -11.626400 6.570500 -93.008942 -7.304789 40.077956 45.612117 -52.100497 -18.921599 -0.756601 2.101574 -21.938473 -7.125000 0.000000 0.000000 38.379542 16.546489 87.667184 -74.255331 58.879563 -45.093656 1.323609 -1.282364 25.246307 7.125000 0.000000 0.000000 
10.091873 18.275620 15.740124 -30.270342 82.989488 -14.544795 -4.016071 -6.553405 -45.439995 5.115155 14.251770 42.554034 -0.257375 3.968465 7.893632 0.087300 1.905300 5.244000 17.161210 20.150744 -24.724055 -4.924278 -12.369208 39.081331 0.314572 18.571681 -3.187653 -0.303000 -3.539100 9.783500 1.410997 -3.651026 -1.359654 4.193777 -1.901383 0.291626 17.506150 -24.769527 13.824170 4.120900 -11.624300 6.539400 -93.397070 -7.239261 39.588706 45.363197 -51.982379 -18.759928 -0.744640 2.106642 -21.444118 -7.125000 0.000000 0.000000 36.989960 18.427124 87.961863 -75.288383 59.036869 -45.993123 1.318943 -1.310574 25.382289 7.125000 0.000000 0.000000 
9.938348 18.265321 15.809772 -31.677749 82.953523 -16.137343 -3.955997 -6.349789 -45.741185 5.588121 14.681270 44.329959 -0.216324 3.357530 7.896688 0.070500 1.713500 4.714600 17.570802 19.984740 -25.201488 -4.949512 -12.400816 39.187145 0.358408 18.746234 -2.785151 -0.389700 -4.008700 11.101100 1.319303 -3.505990 -1.286417 4.101361 -1.849381 0.290739 17.483414 -24.741727 13.798080 4.137000 -11.620400 6.519200 -93.782768 -7.092093 39.082559 45.179161 -51.902308 -18.655834 -0.726198 2.115714 -21.037963 -7.125000 0.000000 0.000000 35.632548 20.315657 88.117060 -76.204461 59.169583 -46.784134 1.306914 -1.338962 25.599013 7.125000 0.000000 0.000000 
9.787902 18.254067 15.880695 -32.847513 82.907414 -17.496352 -3.850668 -6.206292 -45.986313 6.089226 15.109969 46.158846 -0.184583 2.834281 7.900672 0.054400 1.504600 4.138500 17.968227 19.887521 -25.606885 -4.967891 -12.423159 39.261609 0.392379 18.868986 -2.460592 -0.476800 -4.428400 12.285100 1.217978 -3.363099 -1.219629 3.998739 -1.798625 0.302380 17.440163 -24.724876 13.808939 4.140400 -11.619100 6.507800 -94.135457 -6.873490 38.601769 45.057759 -51.858300 -18.606350 -0.702118 2.127575 -20.762658 -7.125000 0.000000 0.000000 34.337804 22.153613 88.110116 -77.021983 59.280445 -47.481559 1.288187 -1.366466 25.893125 7.125000 0.000000 0.000000 
9.640535 18.241220 15.952786 -33.803974 82.883302 -18.635952 -3.742015 -6.103450 -46.199599 6.614560 15.532032 48.023936 -0.163685 2.441644 7.920375 0.040900 1.305100 3.588700 18.326230 19.872871 -25.947638 -4.979593 -12.436586 39.306114 0.412965 18.926693 -2.246567 -0.558300 -4.786000 13.299100 1.104444 -3.234056 -1.161922 3.875757 -1.754102 0.327759 17.390794 -24.721909 13.852187 4.134800 -11.621300 6.507000 -94.443181 -6.599832 38.163364 44.974343 -51.835345 -18.589943 -0.674028 2.140225 -20.620705 -7.125000 0.000000 0.000000 33.125279 23.901668 87.936979 -77.758176 59.372074 -48.101143 1.263711 -1.390350 26.249977 7.125000 0.000000 0.000000 
